<?xml version="1.0" encoding="UTF-8"?>
<svg width="38px" height="44px" viewBox="0 0 38 44" version="1.1" xmlns="http://www.w3.org/2000/svg" xmlns:xlink="http://www.w3.org/1999/xlink">
    <!-- Generator: sketchtool 57.1 (101010) - https://sketch.com -->
    <title>E3B37803-C116-4225-BC3A-83F23AC83D57</title>
    <desc>Created with sketchtool.</desc>
    <g id="Page-1" stroke="none" stroke-width="1" fill="none" fill-rule="evenodd">
        <g id="6" transform="translate(-32.000000, -30.000000)" fill-rule="nonzero">
            <g id="Group-5" transform="translate(32.000000, 30.000000)">
                <g id="earth-globe-logo">
                    <g id="earth-globe-copy">
                        <path d="M37.8186219,22.3014534 C37.7631294,21.8997351 37.3888979,21.6196663 36.9950556,21.6754223 C36.5953044,21.7311783 36.3154443,22.1013675 36.3710224,22.5023985 C36.482093,23.3080689 36.5383561,24.12843 36.5383561,24.939255 C36.5383561,34.5707873 28.7849127,42.4186421 19.2104945,42.5329892 C16.6118548,40.8673529 14.176267,38.8279193 15.2614528,36.2877123 C17.2096832,31.7263706 15.3966728,30.0255109 14.622005,29.2990502 L14.4765942,29.1604763 C14.2551382,28.9390845 14.0060216,28.7880535 13.7852507,28.6554074 C13.2503651,28.333586 13.1064101,28.2470739 13.3935493,27.3827266 C13.5835767,26.8086714 13.8363757,26.5411455 14.127968,26.231008 C14.8038969,25.5139974 15.3205419,24.800767 15.3205419,22.7274845 C15.3205419,21.5207831 14.7103818,20.5582398 13.6463483,20.0868479 C12.4398156,19.5517103 10.8284791,19.7407997 9.97648151,20.5164013 C9.44450755,21.0017107 9.26544161,21.662278 9.48612689,22.3271407 C10.0071394,23.8923474 8.81670633,26.1547193 6.59229812,27.8283453 C6.00329024,28.2719021 5.82722159,28.0688093 5.72265942,27.9470738 C5.07010925,27.1926921 5.12054916,25.0469011 5.65611986,24.510303 C6.01493681,24.1503372 6.12163989,23.6907151 5.94111814,23.2809211 C5.34919862,21.933498 1.57262877,22.0375358 0.824336993,22.0735324 C0.792223304,22.0749929 0.766617989,22.0903709 0.735874484,22.0962987 C0.692028594,22.1036011 0.651094344,22.1124499 0.610160095,22.127828 C0.559035102,22.1461269 0.513733391,22.1703537 0.469116772,22.1996493 C0.435461626,22.2208692 0.404118665,22.2428624 0.374830981,22.2693228 C0.335352552,22.3052335 0.303923955,22.3433779 0.273266086,22.3859036 C0.247660771,22.4203538 0.225737826,22.4555772 0.206812159,22.4950961 C0.184889213,22.5405429 0.1710161,22.5874501 0.158598806,22.6380515 C0.152004796,22.6651993 0.135905133,22.6878797 0.1323084,22.7164879 C0.0394784286,23.4744779 0,24.1394265 0,24.939255 C0,33.7292063 5.93306831,41.3380576 14.4275245,43.4435565 C14.4860142,43.4582472 14.545189,43.4655497 14.602908,43.4655497 C14.9309815,43.4655497 15.2299385,43.2419242 15.3117214,42.9076457 C15.4089188,42.5146902 15.1692222,42.1173533 14.7775209,42.0206179 C6.93724196,40.0770606 1.46164386,33.0524879 1.46164386,24.9391691 C1.46164386,24.4310933 1.48065516,23.9816945 1.51936286,23.5243061 C2.75218598,23.5199246 3.80517244,23.6650278 4.34014369,23.829289 C3.50193358,25.1422619 3.59399282,27.7235342 4.61854797,28.9082425 C5.35373736,29.7564387 6.41845602,29.7923493 7.46930157,29.0013697 C10.2768944,26.8892556 11.6127382,24.0866774 10.8724963,21.8638244 C10.8491175,21.7912299 10.8257387,21.7231027 10.960188,21.60068 C11.3446103,21.2502503 12.3223223,21.1021403 13.0552851,21.4276559 C13.5960797,21.6673467 13.859155,22.0926046 13.859155,22.7274845 C13.859155,24.3821242 13.5266284,24.7354748 13.0662466,25.2237052 C12.7249851,25.586592 12.2997142,26.0374512 12.0066661,26.9194103 C11.3497485,28.8995655 12.4035057,29.5343596 13.0333622,29.9133975 C13.1963284,30.0109061 13.3497891,30.1032601 13.4433041,30.1970746 C13.4966557,30.2505969 13.5572863,30.3078134 13.6238259,30.3700987 C14.2661853,30.9726762 15.4624416,32.0950992 13.9183298,35.7100489 C12.1674058,39.8088474 16.6820767,42.6664944 18.6098401,43.8871134 C18.7267339,43.9603952 18.861954,44 19.0000856,44 C29.4763418,44 38,35.4490522 38,24.939255 C38,24.0609042 37.9391981,23.1738764 37.8186219,22.3014534 Z" id="Path" fill="#3F3F3F"></path>
                        <path d="M27.8889583,25.3135005 C27.6749813,25.3746699 27.3824766,25.4580434 27.3047298,25.4639185 C26.2814405,25.4639185 25.632828,26.2528134 25.1596663,26.8285659 C24.9790092,27.0489657 24.6561347,27.461859 24.4444137,27.4486402 C24.1097383,27.2819796 23.7580558,27.1980013 23.3989111,27.1980013 C22.525909,27.1980013 21.7699608,27.7148307 21.6011047,28.4284735 C21.4818814,28.9298377 21.6573322,29.6161789 22.5051707,30.0386623 C23.7076419,30.6373101 24.9508955,31.2559157 25.5039732,31.8066129 C25.8845504,32.1855521 26.5427945,32.4031008 27.3106303,32.4031008 C28.4768312,32.4031008 30.0273405,31.8390984 30.5596801,30.2480897 C30.769926,29.6214492 31.2727634,29.1422026 31.7592011,28.6784212 C32.3233855,28.1402516 32.8572869,27.6330123 32.8647656,26.9031268 C32.8698686,26.472522 32.6781049,26.0611839 32.2959659,25.6799984 C31.7754272,25.1617002 31.066856,24.8992248 30.1886477,24.8992248 C29.3461889,24.8991385 28.5035567,25.1387185 27.8889583,25.3135005 Z M31.3838301,26.8830827 C31.349035,27.0283168 30.9802586,27.3799543 30.7352176,27.6137457 C30.1761526,28.1460403 29.4808574,28.8088814 29.1551194,29.7819756 C28.78938,30.8738663 27.5542829,30.9283831 27.3106302,30.9283831 C26.878945,30.9283831 26.6079594,30.8148569 26.5516451,30.7647464 C25.8274551,30.0436734 24.5354363,29.400099 23.1670591,28.7196328 C23.1641089,28.7181641 23.1618529,28.7173865 23.1589027,28.7159177 C23.2980832,28.6598458 23.5557928,28.6547484 23.7823516,28.767497 C24.0214923,28.8868982 24.2666201,28.9473764 24.5116611,28.9473764 C25.3312991,28.9473764 25.8488875,28.3177984 26.3050422,27.7626085 C26.6390234,27.3571454 26.9825494,26.938377 27.304643,26.938377 C27.5674721,26.938377 27.8733396,26.8513748 28.2953932,26.731196 C28.8559333,26.5719655 29.5533978,26.373597 30.1887344,26.373597 C30.6663215,26.373597 31.0128845,26.4879008 31.248294,26.7222971 C31.351291,26.8256284 31.3786239,26.8830827 31.3838301,26.8830827 Z" id="Shape" fill="#3F3F3F"></path>
                        <path d="M18.2206809,7.28460989 C19.6895587,7.22424954 21.181839,7.35005775 22.6170273,7.65841288 C22.5907101,8.71721956 23.0449607,9.44352697 23.3375361,9.91002621 C23.4180308,10.0395423 23.5292146,10.2161394 23.5423303,10.2403698 C23.5423303,12.8797552 23.0061278,13.3087448 23.011957,13.3102107 C21.8261393,13.3102107 19.8803799,14.375657 19.1488128,15.7494584 C18.6997056,16.5920026 18.736224,17.4837836 19.2504812,18.2607937 C19.6030633,18.792827 19.9066114,19.3843584 20.2007298,19.9568332 C20.8224848,21.1680066 21.5130759,22.5116279 22.5949963,22.5116279 C22.8246504,22.5116279 23.0719637,22.4512676 23.3396792,22.316664 C24.1926313,21.8876744 24.804185,20.6677056 25.3952508,19.4888681 C25.6556798,18.9693379 26.0382652,18.207073 26.2650048,17.9649418 C27.0074588,18.0665196 27.3703278,18.7419519 27.8611824,19.8118821 C28.2225083,20.5992397 28.59635,21.4122936 29.330746,21.7816989 C30.5669693,22.4034967 34.6319931,21.7522948 36.8784717,20.7927377 C36.9084751,20.7802345 36.9289631,20.7552281 36.9567376,20.739017 C36.9998567,20.7132345 37.0408327,20.6890042 37.0774367,20.6558922 C37.1125835,20.6235563 37.1395865,20.5882024 37.1674467,20.5506928 C37.1959928,20.5131831 37.22231,20.4763633 37.242798,20.434456 C37.2639718,20.3917726 37.2757159,20.3476233 37.2874601,20.3020081 C37.2998901,20.256393 37.3108627,20.2129335 37.3145488,20.1658524 C37.3174634,20.1165294 37.3116342,20.0694483 37.3043477,20.0194355 C37.3006616,19.9870996 37.3072623,19.9561434 37.2985185,19.9238075 C35.763119,14.213805 31.5927406,9.46413572 26.1415625,7.2190758 C25.7662635,7.06455331 25.3397875,7.24485829 25.1869419,7.62081701 C25.0340963,7.99677573 25.2132591,8.42654139 25.5871008,8.58028781 C30.4142951,10.5692474 34.1486822,14.6883236 35.6958258,19.6735707 C33.4201154,20.4800712 30.5043052,20.723582 29.9849045,20.465326 C29.7098167,20.3270146 29.4333574,19.7258255 29.1897303,19.1952581 C28.679845,18.0841966 27.9812815,16.5625123 26.197883,16.4830091 C25.2659793,16.4336861 24.7567798,17.4947347 24.0889054,18.8266288 C23.6968047,19.6080366 23.1050531,20.7898059 22.6332291,21.0223657 C22.3618275,20.9583838 21.8227104,19.9083725 21.5008174,19.2814009 C21.2030985,18.7015967 20.865861,18.044445 20.467931,17.4448081 C20.2521641,17.1195521 20.2433346,16.8105071 20.4386992,16.4441198 C20.9412123,15.5007738 22.4489229,14.7818821 23.0121285,14.7818821 C24.3346756,14.7818821 25.0054646,13.2543342 25.0054646,10.2403698 C25.0054646,9.81215622 24.7867831,9.46335966 24.5760739,9.12560041 C24.2659251,8.63185279 23.946261,8.12042821 24.1357106,7.24779007 C24.2198057,6.86001797 23.9827793,6.4744016 23.6002796,6.37730767 C21.8359118,5.92995128 19.9851344,5.74085095 18.1615315,5.81362828 C17.7577722,5.82983934 17.4439373,6.1726861 17.4600534,6.57891122 C17.475998,6.98436028 17.7912902,7.29788916 18.2206809,7.28460989 Z" id="Path" fill="#3F3F3F"></path>
                        <path d="M19.3177104,39.9069767 C20.0097198,39.9069767 20.6563936,39.663434 21.0928984,39.2395848 C21.5775616,38.768142 21.6958618,38.0751227 21.4257301,37.2891628 C21.24396,36.7580616 20.884098,36.1964239 20.4629902,35.7867197 C20.2541898,35.5843637 19.9710562,35.4728682 19.6637151,35.4728682 C18.7527262,35.4728682 17.6841748,36.4924694 17.2943742,37.4076476 C16.9900269,38.1226331 17.080527,38.7893594 17.5432923,39.2395016 C17.9790272,39.663434 18.6257866,39.9069767 19.3177104,39.9069767 Z M18.7629909,37.7244112 C19.0148172,37.3196993 19.3703167,37.0343042 19.5630358,36.9327102 C19.7702964,37.1720094 19.949928,37.4716327 20.0411125,37.7378905 C20.1221178,37.9729463 20.1294741,38.1681466 20.0607864,38.2348775 C19.7366797,38.5501434 18.8943785,38.5415732 18.5789968,38.2426988 C18.5688176,38.2121623 18.5695875,38.0346848 18.7629909,37.7244112 Z" id="Shape" fill="#3F3F3F"></path>
                        <path d="M1.2577284,21.1294023 C1.31115445,21.1420523 1.36458049,21.1472868 1.41723474,21.1472868 C1.75236955,21.1472868 2.05457403,20.9112981 2.13072545,20.5651232 C2.65177948,18.1865664 4.46877962,14.6831156 5.94258387,13.2143149 C6.23089586,12.9269408 6.23604123,12.4557486 5.95356065,12.1616569 C5.66962222,11.8675653 5.20636779,11.8631159 4.91882761,12.15049 C3.25327273,13.8099137 1.28328371,17.5902696 0.702286171,20.2412821 C0.614557686,20.6425065 0.863336117,21.0400668 1.2577284,21.1294023 Z" id="Path" fill="#3F3F3F"></path>
                        <path d="M9.70207335,15.0747508 C9.84026498,15.2479392 10.0490443,15.3488372 10.2702703,15.3488372 C10.491411,15.3488372 10.7001903,15.2479392 10.8384672,15.0747508 L13.7272775,11.4450763 C14.526078,10.5285143 16.0900901,7.86079734 16.0900901,5.84711898 C16.0900901,2.62317795 13.4791975,0 10.2702703,0 C7.061343,0 4.45045045,2.62317795 4.45045045,5.84720463 C4.45045045,8.20143532 6.53901104,11.0804558 6.79220607,11.4203229 L9.70207335,15.0747508 Z M10.2702704,1.4618226 C12.6774988,1.4618226 14.6351141,3.4286494 14.6351141,5.84720484 C14.6351141,7.35870562 13.3125324,9.70197295 12.6120261,10.5066735 L10.2702704,13.4477917 L7.94309266,10.5263734 C7.23892062,9.5776919 5.90542679,7.3790908 5.90542679,5.84720484 C5.90542679,3.4286494 7.86304211,1.4618226 10.2702704,1.4618226 Z" id="Shape" fill="#00A799"></path>
                        <path d="M10.0990991,7.50387597 C10.9486665,7.50387597 11.6396396,6.81553004 11.6396396,5.96899225 C11.6396396,5.12254439 10.9487568,4.43410853 10.0990991,4.43410853 C9.24953166,4.43410853 8.55855856,5.12245446 8.55855856,5.96899225 C8.55855856,6.81553004 9.24953166,7.50387597 10.0990991,7.50387597 Z" id="Path" fill="#00A799"></path>
                    </g>
                </g>
            </g>
        </g>
    </g>
</svg>